<svg width="29" height="19" viewBox="0 0 29 19" fill="none" xmlns="http://www.w3.org/2000/svg">
<path d="M18.9343 1.85742H26.1707V3.59323H18.9343V1.85742ZM11.6834 8.72533C13.2831 7.9686 14.121 6.81738 14.121 5.03854C14.121 1.5203 11.473 0.666748 8.41526 0.666748H0V18.326H8.65103C11.8938 18.326 14.9371 16.7839 14.9371 13.1975C14.9371 10.9812 13.8779 9.34218 11.6834 8.72533ZM3.9247 3.6793H7.60638C9.02464 3.6793 10.2978 4.07021 10.2978 5.69843C10.2978 7.19753 9.30757 7.80004 7.90381 7.80004H3.9247V3.6793ZM8.1142 15.3278H3.92108V10.4647H8.19762C9.9242 10.4647 11.016 11.1784 11.016 12.9859C11.016 14.7648 9.71382 15.3278 8.1142 15.3278ZM29 12.118C29 8.33441 26.762 5.18199 22.7139 5.18199C18.7784 5.18199 16.1014 8.11206 16.1014 11.9531C16.1014 15.9339 18.6369 18.6667 22.7139 18.6667C25.8008 18.6667 27.7994 17.2932 28.7606 14.3631H25.6303C25.2893 15.4569 23.9037 16.0308 22.8264 16.0308C20.7443 16.0308 19.6562 14.8257 19.6562 12.7779H28.9746C28.9855 12.5663 29 12.344 29 12.118ZM19.6562 10.5615C19.7686 8.87954 20.9039 7.82873 22.6015 7.82873C24.3861 7.82873 25.2784 8.86519 25.4344 10.5615H19.6562Z" fill="white"/>
</svg>
