<svg width="23" height="23" viewBox="0 0 23 23" fill="none" xmlns="http://www.w3.org/2000/svg">
<path d="M21.4091 0.666748H1.16906C0.682312 0.666748 0.289062 1.06 0.289062 1.54675V21.7867C0.289062 22.2735 0.682312 22.6667 1.16906 22.6667H21.4091C21.8958 22.6667 22.2891 22.2735 22.2891 21.7867V1.54675C22.2891 1.06 21.8958 0.666748 21.4091 0.666748ZM6.81481 19.4135H3.55056V8.914H6.81481V19.4135ZM5.18406 7.4785C4.80986 7.4785 4.44406 7.36753 4.13292 7.15964C3.82179 6.95174 3.57928 6.65625 3.43608 6.31053C3.29288 5.96482 3.25541 5.5844 3.32842 5.21739C3.40142 4.85037 3.58162 4.51325 3.84622 4.24865C4.11082 3.98405 4.44794 3.80386 4.81495 3.73085C5.18196 3.65785 5.56238 3.69532 5.9081 3.83852C6.25382 3.98172 6.54931 4.22422 6.7572 4.53536C6.9651 4.8465 7.07606 5.2123 7.07606 5.5865C7.07331 6.6315 6.22631 7.4785 5.18406 7.4785ZM19.0358 19.4135H15.7743V14.3067C15.7743 13.0885 15.7523 11.5237 14.0776 11.5237C12.3808 11.5237 12.1196 12.8492 12.1196 14.2187V19.4135H8.86081V8.914H11.9903V10.3495H12.0343C12.4688 9.5245 13.5331 8.65275 15.1226 8.65275C18.4281 8.65275 19.0358 10.828 19.0358 13.655V19.4135Z" fill="white"/>
</svg>
