<svg width="27" height="23" viewBox="0 0 27 23" fill="none" xmlns="http://www.w3.org/2000/svg">
<path d="M26.9992 3.38545C26.017 3.8207 24.9618 4.11478 23.8525 4.24771C24.9971 3.56283 25.8534 2.48491 26.2616 1.21509C25.1863 1.85383 24.0093 2.30344 22.782 2.54436C21.9567 1.66312 20.8635 1.07902 19.6721 0.882739C18.4808 0.686463 17.258 0.888994 16.1936 1.45889C15.1291 2.02878 14.2826 2.93416 13.7855 4.03444C13.2883 5.13473 13.1683 6.36837 13.4442 7.54384C11.2652 7.43443 9.13358 6.86808 7.18766 5.88155C5.24174 4.89501 3.52501 3.51033 2.14887 1.81738C1.67833 2.62906 1.40777 3.57014 1.40777 4.57238C1.40724 5.47464 1.62943 6.36307 2.05462 7.15886C2.4798 7.95464 3.09484 8.63318 3.84516 9.13426C2.97499 9.10657 2.12402 8.87144 1.36307 8.44845V8.51903C1.36298 9.78447 1.80071 11.011 2.60198 11.9904C3.40325 12.9699 4.5187 13.6419 5.75908 13.8926C4.95185 14.111 4.10553 14.1432 3.28404 13.9867C3.634 15.0755 4.31569 16.0277 5.23368 16.7098C6.15167 17.392 7.26 17.77 8.40351 17.791C6.46234 19.3149 4.06501 20.1414 1.59716 20.1378C1.16001 20.1379 0.723224 20.1124 0.289062 20.0613C2.79407 21.672 5.71007 22.5268 8.68818 22.5234C18.7695 22.5234 24.2807 14.1737 24.2807 6.93214C24.2807 6.69687 24.2748 6.45924 24.2642 6.22397C25.3362 5.44873 26.2615 4.48874 26.9969 3.38898L26.9992 3.38545Z" fill="white"/>
</svg>
